<svg width="293" height="288" viewBox="0 0 293 288" fill="none" xmlns="http://www.w3.org/2000/svg">
<rect y="5" width="293" height="283" rx="50" fill="#4F46E5"/>
<path d="M85.52 230L36.53 69H71.95L98.17 158.93C99.2433 162.15 100.163 165.677 100.93 169.51C101.85 173.19 102.54 176.793 103 180.32C103.613 183.693 104.073 186.913 104.38 189.98C104.84 192.893 105.223 195.347 105.53 197.34L100.01 197.11C101.39 190.67 102.54 185.303 103.46 181.01C104.38 176.563 105.223 172.653 105.99 169.28C106.91 165.753 107.983 162.227 109.21 158.7L134.51 92.23H163.03L187.87 158.7C189.71 163.3 191.167 167.747 192.24 172.04C193.467 176.18 194.463 180.243 195.23 184.23C195.997 188.063 196.763 191.973 197.53 195.96L192.47 196.88C192.93 193.66 193.237 190.9 193.39 188.6C193.697 186.147 193.927 183.923 194.08 181.93C194.387 179.937 194.693 177.943 195 175.95C195.307 173.803 195.767 171.35 196.38 168.59C196.993 165.677 197.913 162.303 199.14 158.47L225.13 69H260.09L210.64 230H185.11L145.32 134.78L149 135.24L111.97 230H85.52Z" fill="white"/>
<rect x="288.086" y="148.551" width="261" height="10.5514" transform="rotate(179.471 288.086 148.551)" fill="#4F46E5"/>
<ellipse cx="247" cy="223.5" rx="12" ry="12.5" fill="white"/>
</svg>
